<?xml version="1.0" standalone="no"?>
<!DOCTYPE svg PUBLIC "-//W3C//DTD SVG 20010904//EN"
 "http://www.w3.org/TR/2001/REC-SVG-20010904/DTD/svg10.dtd">
<svg version="1.0" xmlns="http://www.w3.org/2000/svg"
 width="512.000000pt" height="512.000000pt" viewBox="0 0 512.000000 512.000000"
 preserveAspectRatio="xMidYMid meet">
<metadata>
Created by potrace 1.11, written by Peter Selinger 2001-2013
</metadata>
<g transform="translate(0.000000,512.000000) scale(0.100000,-0.100000)"
fill="#000000" stroke="none">
<path d="M640 3055 l0 -105 175 0 175 0 0 -490 0 -490 125 0 125 0 0 490 0
490 175 0 175 0 0 105 0 105 -475 0 -475 0 0 -105z"/>
<path d="M1697 3153 c-4 -3 -7 -271 -7 -595 l0 -588 400 0 400 0 0 100 0 100
-214 0 c-117 0 -241 3 -275 6 l-61 7 0 143 0 144 233 2 232 3 3 103 3 102
-236 0 -235 0 0 135 0 135 270 0 270 0 0 105 0 105 -388 0 c-214 0 -392 -3
-395 -7z"/>
<path d="M2510 3150 c0 -5 79 -138 175 -295 152 -249 173 -290 164 -307 -6
-12 -87 -145 -180 -295 -93 -151 -169 -277 -169 -279 0 -2 64 -4 143 -4 l143
0 114 195 c63 107 115 193 115 192 1 -1 53 -89 115 -194 l112 -193 145 0 c79
0 142 3 140 8 -3 4 -84 137 -181 295 -97 159 -176 290 -176 293 0 2 31 55 68
117 231 378 273 448 278 461 5 14 -12 16 -134 16 l-141 0 -42 -72 c-23 -40
-74 -128 -114 -196 l-71 -122 -114 195 -113 195 -139 0 c-81 0 -138 -4 -138
-10z"/>
<path d="M3530 3055 l0 -105 175 0 175 0 0 -490 0 -490 125 0 125 0 0 490 0
490 175 0 175 0 0 105 0 105 -475 0 -475 0 0 -105z"/>
</g>
</svg>
